<?xml version="1.0" encoding="UTF-8" standalone="no"?>
<svg
  width="300"
  height="300"
  viewBox="0 0 300 300"
  version="1.1"
  id="svg1"
  xml:space="preserve"
  xmlns="http://www.w3.org/2000/svg"
  xmlns:svg="http://www.w3.org/2000/svg"><defs
     id="defs1" /><g
     id="layer1"><path
       style="display:none;fill:#000000"
       d="m -13.080247,151.11111 c 0,-162.499999 0,-162.499999 162.499997,-162.499999 162.5,0 162.5,0 162.5,162.499999 0,162.5 0,162.5 -162.5,162.5 -162.499997,0 -162.499997,0 -162.499997,-162.5 z M 163.94343,288.59844 c 1.18617,-0.63482 30.46609,-29.55534 65.0665,-64.26783 85.85916,-86.13729 85.74938,-84.7195 6.5603,-84.7195 -67.12659,0 -54.10719,-4.80268 -93.9489,34.65647 -36.31972,35.97097 -30.1904,32.70843 -60.399064,32.14942 -13.366382,-0.24734 -24.302513,-0.175 -24.302513,0.16077 0,0.67411 13.874306,14.4377 44.999997,44.64091 11.275,10.94084 23.875,23.32761 28,27.52617 12.30307,12.52244 23.16113,15.66705 34.02368,9.85359 z m -15.62364,-20.87319 c -5.26383,-3.89501 -28.40004,-27.83774 -28.40004,-29.39006 0,-1.47892 69.20434,-70.54237 73.45381,-73.30428 3.48196,-2.26307 63.72025,-3.64574 65.85441,-1.51158 1.15514,1.15513 -4.11262,6.65743 -59.83373,62.49775 -35.51264,35.58862 -44.85002,44.59403 -46.23789,44.59403 -0.51509,0 -2.69154,-1.29864 -4.83656,-2.88586 z M 125.5765,160.51424 c 1.86605,-1.15329 11.59416,-10.46154 21.61803,-20.68502 23.02162,-23.48005 39.597,-39.66662 43.88781,-42.858316 3.33741,-2.482518 3.33741,-2.482518 28.08821,-2.171156 13.61294,0.17125 24.75044,0.03591 24.75,-0.300758 -4.4e-4,-0.336666 -13.1633,-13.375866 -29.2508,-28.976 C 198.58225,49.922857 179.73557,31.572583 172.78822,24.744603 159.08846,11.28021 156.40162,9.6111107 148.42707,9.6111107 c -9.21474,0 -9.00938,-0.1795651 -75.375254,65.9079333 C 6.2546653,142.03601 3.4195941,145.83554 9.2490543,161.02687 10.339662,163.86895 120.93706,163.38157 125.5765,160.51424 Z M 41.920916,138.77778 c -0.550639,-0.18334 -1.001163,-0.75571 -1.001163,-1.27195 0,-1.92828 105.086047,-105.894719 107.035097,-105.894719 3.61619,0 34.43583,29.609202 33.46177,32.147564 -0.89044,2.320465 -74.40176,74.257935 -76.82358,75.178815 -1.98942,0.75647 -60.367211,0.6077 -62.672124,-0.15971 z"
       id="path1" /><path
       style="display:inline;fill:#5bb0db;fill-opacity:1;stroke-width:0.246914"
       d="m 33.703704,162.57738 c -12.720691,-0.25907 -21.892184,-0.78456 -23.8758225,-1.368 -0.8738244,-0.25702 -2.4159041,-5.76486 -2.4187442,-8.63902 -0.00429,-4.33829 2.1606852,-9.04541 7.2578977,-15.78024 7.442628,-9.83377 22.684385,-25.6386 70.51815,-73.123295 C 128.64367,20.525477 135.52207,14.11099 141.6148,11.043111 c 2.18319,-1.0993074 4.01144,-1.3806342 7.96346,-1.2253971 3.83348,0.1505806 5.44911,0.5558941 8.07954,2.0269141 3.55807,1.989789 6.07593,4.265041 22.95948,20.747202 5.56791,5.43553 18.01235,17.543447 27.65432,26.906481 9.64198,9.363037 21.56525,21.028472 26.49617,25.92319 l 8.9653,8.899487 -0.94061,0.179612 c -0.51733,0.09879 -11.05172,0.165254 -23.40974,0.147704 -24.29298,-0.0345 -24.69953,-0.01533 -26.93678,1.270227 -3.17768,1.825946 -9.58278,7.949469 -36.14964,34.560459 -23.61474,23.65396 -29.3007,29.1391 -30.98766,29.89325 -2.38908,1.06803 -14.99467,1.75508 -40.740739,2.22053 -14.818128,0.26788 -37.288466,0.26108 -50.864197,-0.0154 z m 69.116846,-23.36226 1.95634,-0.15745 1.99234,-1.75106 c 6.57105,-5.77527 32.19647,-30.56064 55.54199,-53.721205 13.19605,-13.091504 19.17026,-19.331309 19.17026,-20.022501 0,-1.342753 -3.86265,-5.869218 -11.46851,-13.439447 -9.9688,-9.922097 -19.33228,-17.935939 -21.63055,-18.512769 -0.50664,-0.12716 -0.89187,0.07956 -2.09423,1.123814 -12.71869,11.046254 -102.269,99.829588 -105.192768,104.291828 -0.375908,0.57371 -0.377908,0.67922 -0.02314,1.22067 0.293042,0.44724 0.70901,0.63782 1.695064,0.77665 3.552724,0.50016 54.210736,0.66168 60.053204,0.19147 z"
       id="path2" /><path
       style="display:inline;fill:#5bb0db;fill-opacity:1;stroke-width:0.246914"
       d="m 149.38272,290.87868 c -4.73163,-1.00381 -9.78603,-3.7142 -14.69136,-7.87816 -0.81482,-0.69167 -5.64815,-5.37451 -10.74074,-10.40631 -5.0926,-5.03181 -17.70371,-17.3647 -28.024694,-27.40644 C 85.604938,235.14603 72.604938,222.374 67.037037,216.80548 L 56.91358,206.6809 l 3.209877,-0.19668 c 1.765432,-0.10818 10.765432,-0.0688 20,0.0876 9.234568,0.15634 17.95679,0.21294 19.382716,0.12578 7.023887,-0.42933 11.251337,-2.58696 19.382717,-9.89266 1.35802,-1.22013 12.52469,-12.22884 24.81481,-24.4638 12.29013,-12.23497 23.29013,-22.99706 24.44445,-23.91576 6.54272,-5.20721 11.21372,-7.1553 20,-8.34121 2.93747,-0.39648 55.34349,-0.56034 71.23457,-0.22273 19.13137,0.40645 25.23773,1.08229 30.12345,3.33404 2.24002,1.03239 3.26874,1.92622 3.98349,3.46114 0.72573,1.55849 0.74316,3.02371 0.0622,5.23099 -2.32218,7.52762 -10.8726,17.79519 -37.28669,44.77485 -12.83665,13.11152 -78.85711,78.97501 -86.46141,86.25585 -6.08367,5.82489 -6.91284,6.40178 -10.92379,7.60008 -2.2251,0.66476 -7.17676,0.85263 -9.49729,0.36033 z m 5.97148,-21.58041 c 3.3369,-2.66477 12.26559,-11.37525 37.75174,-36.82913 50.19363,-50.13009 64.77816,-65.09815 66.10598,-67.84437 0.34032,-0.70385 0.34463,-0.85298 0.0337,-1.16346 -0.61824,-0.61726 -4.46415,-0.89162 -14.55422,-1.03828 -20.57916,-0.29912 -48.5846,1.0606 -51.29712,2.49056 -3.30295,1.74123 -73.64115,71.90813 -73.64115,73.46181 0,1.52755 23.62757,25.88462 28.71511,29.60168 2.01156,1.46969 4.19157,2.76366 4.65605,2.76366 0.233,0 1.23648,-0.64911 2.22995,-1.44247 z"
       id="path3" /></g></svg>
