<?xml version="1.0" encoding="UTF-8"?><svg id="Layer_1" xmlns="http://www.w3.org/2000/svg" viewBox="0 0 350 80"><defs><style>.cls-1{fill:#09f;}.cls-2{fill:#6cf;}.cls-3{fill:#f2f5f7;}</style></defs><path class="cls-3" d="M96.16,21.47v45.67h-7.47V21.47h-14.87v-6.74h37.22v6.74h-14.87Z"/><path class="cls-3" d="M121.32,67.14h-7.25V12.49h7.25v19.91l5.31-3.07h11.29l8.67,5.02v32.79h-7.25v-31.3h-18.01v31.3Z"/><path class="cls-3" d="M182.08,60.63v6.51h-20.85l-8.67-5.02v-27.78l8.67-5.02h12.18l8.67,5.02v16.62h-22.27v9.66h22.27ZM159.81,35.84v8.61h15.02v-8.61h-15.02Z"/><path class="cls-3" d="M219.25,34.35v32.79h-7.25v-31.3h-17.27v31.3h-7.25V29.33h5.46l1.79,3.07,5.31-3.07h10.54l8.67,5.02Z"/><path class="cls-1" d="M225.43,66.14v-9.23l1-1h9.21l1,1v9.23l-1,1h-9.21l-1-1Z"/><path class="cls-3" d="M261.3,46.25h-11.29v20.89h-7.47V14.73h26.83l8.67,5.02v21.49l-8.67,5.02,12.03,20.89h-8.3l-11.81-20.89ZM250.01,21.47v18.04h20.55v-18.04h-20.55Z"/><path class="cls-3" d="M282.11,62.5V29.71h7.25v31.3h17.27v-31.3h7.25v37.81h-5.46l-1.79-3.07-5.31,3.07h-10.54l-8.67-5.02Z"/><path class="cls-3" d="M350,34.35v32.79h-7.25v-31.3h-17.27v31.3h-7.25V29.33h5.46l1.79,3.07,5.31-3.07h10.54l8.67,5.02Z"/><path class="cls-2" d="M0,70.15V9.85c.39-.39.61-.61,1-1h7.64c.39.39.61.61,1,1v15.55c.39.39.61.61,1,1h15.55c.39.39.61.61,1,1v7.64c-.39.39-.61.61-1,1h-15.55c-.39.39-.61.61-1,1v23.46c.39.39.61.61,1,1h15.55c.39.39.61.61,1,1v7.64c-.39.39-.61.61-1,1H1c-.39-.39-.61-.61-1-1Z"/><path class="cls-1" d="M17.55,52.59v-7.64c.39-.39.61-.61,1-1h7.64c.39.39.61.61,1,1v7.64c-.39.39-.61.61-1,1h-7.64c-.39-.39-.61-.61-1-1Z"/><path class="cls-2" d="M35.1,70.15V27.41c.39-.39.61-.61,1-1h25.2c.39.39.61.61,1,1v7.64c-.39.39-.61.61-1,1h-15.55c-.39.39-.61.61-1,1v33.1c-.39.39-.61.61-1,1h-7.64c-.39-.39-.61-.61-1-1Z"/><path class="cls-1" d="M17.55,17.49v-7.64c.39-.39.61-.61,1-1h42.74c.39.39.61.61,1,1v7.64c-.39.39-.61.61-1,1H18.55c-.39-.39-.61-.61-1-1Z"/><path class="cls-1" d="M52.66,70.15v-25.2c.39-.39.61-.61,1-1h7.64c.39.39.61.61,1,1v25.2c-.39.39-.61.61-1,1h-7.64c-.39-.39-.61-.61-1-1Z"/></svg>