<?xml version="1.0" encoding="UTF-8"?><svg id="Layer_1" xmlns="http://www.w3.org/2000/svg" viewBox="0 0 80 80"><defs><style>.cls-1{fill:#09f;}.cls-2{fill:#6cf;}</style></defs><path class="cls-2" d="M0,78.72V1.28C.5.78.78.5,1.28,0h9.81c.5.5.78.78,1.28,1.28v19.97c.5.5.78.78,1.28,1.28h19.97c.5.5.78.78,1.28,1.28v9.81c-.5.5-.78.78-1.28,1.28H13.67c-.5.5-.78.78-1.28,1.28v30.13c.5.5.78.78,1.28,1.28h19.97c.5.5.78.78,1.28,1.28v9.81c-.5.5-.78.78-1.28,1.28H1.28c-.5-.5-.78-.78-1.28-1.28Z"/><path class="cls-1" d="M22.54,56.17v-9.81c.5-.5.78-.78,1.28-1.28h9.81c.5.5.78.78,1.28,1.28v9.81c-.5.5-.78.78-1.28,1.28h-9.81c-.5-.5-.78-.78-1.28-1.28Z"/><path class="cls-2" d="M45.08,78.72V23.83c.5-.5.78-.78,1.28-1.28h32.36c.5.5.78.78,1.28,1.28v9.81c-.5.5-.78.78-1.28,1.28h-19.97c-.5.5-.78.78-1.28,1.28v42.51c-.5.5-.78.78-1.28,1.28h-9.81c-.5-.5-.78-.78-1.28-1.28Z"/><path class="cls-1" d="M22.54,11.1V1.28C23.04.78,23.33.5,23.83,0h54.89c.5.5.78.78,1.28,1.28v9.81c-.5.5-.78.78-1.28,1.28H23.83c-.5-.5-.78-.78-1.28-1.28Z"/><path class="cls-1" d="M67.62,78.72v-32.36c.5-.5.78-.78,1.28-1.28h9.81c.5.5.78.78,1.28,1.28v32.36c-.5.5-.78.78-1.28,1.28h-9.81c-.5-.5-.78-.78-1.28-1.28Z"/></svg>