<?xml version="1.0" encoding="UTF-8"?><svg id="Layer_1" xmlns="http://www.w3.org/2000/svg" viewBox="0 0 80 80"><defs><style>.cls-1{fill:#09f;}.cls-2{fill:#6cf;}.cls-3{fill:#10101e;}</style></defs><rect class="cls-3" x="-10" y="-10" width="100" height="100"/><path class="cls-2" d="M15,64.2V15.8c.31-.31.49-.49.8-.8h6.13c.31.31.49.49.8.8v12.48c.31.31.49.49.8.8h12.48c.31.31.49.49.8.8v6.13c-.31.31-.49.49-.8.8h-12.48c-.31.31-.49.49-.8.8v18.83c.31.31.49.49.8.8h12.48c.31.31.49.49.8.8v6.13c-.31.31-.49.49-.8.8H15.8c-.31-.31-.49-.49-.8-.8Z"/><path class="cls-1" d="M29.09,50.11v-6.13c.31-.31.49-.49.8-.8h6.13c.31.31.49.49.8.8v6.13c-.31.31-.49.49-.8.8h-6.13c-.31-.31-.49-.49-.8-.8Z"/><path class="cls-2" d="M43.17,64.2V29.89c.31-.31.49-.49.8-.8h20.22c.31.31.49.49.8.8v6.13c-.31.31-.49.49-.8.8h-12.48c-.31.31-.49.49-.8.8v26.57c-.31.31-.49.49-.8.8h-6.13c-.31-.31-.49-.49-.8-.8Z"/><path class="cls-1" d="M29.09,21.94v-6.13c.31-.31.49-.49.8-.8h34.31c.31.31.49.49.8.8v6.13c-.31.31-.49.49-.8.8H29.89c-.31-.31-.49-.49-.8-.8Z"/><path class="cls-1" d="M57.26,64.2v-20.22c.31-.31.49-.49.8-.8h6.13c.31.31.49.49.8.8v20.22c-.31.31-.49.49-.8.8h-6.13c-.31-.31-.49-.49-.8-.8Z"/></svg>